<svg width="631" height="599" viewBox="0 0 631 599" fill="none" xmlns="http://www.w3.org/2000/svg">
<path d="M298.71 75.4849C218.935 7.82581 130.65 140.124 64.1705 242.821C-2.309 345.519 71.0844 364.849 38.1105 458.486C5.13668 552.122 179.579 570.245 239.145 510.439C298.71 450.632 583.035 314.709 564.096 162.476C545.157 10.2419 378.485 143.144 298.71 75.4849Z" fill="white"/>
<path d="M319.71 118.485C239.935 50.8258 151.65 183.124 85.1705 285.821C18.691 388.519 92.0844 407.849 59.1105 501.486C26.1367 595.122 200.579 613.245 260.145 553.439C319.71 493.632 604.035 357.709 585.096 205.476C566.157 53.2419 399.485 186.144 319.71 118.485Z" fill="white" fill-opacity="0.31"/>
<g clip-path="url(#clip0_88_67)">
<path d="M235.324 292.466C216.532 292.466 198.163 286.894 182.538 276.454C166.913 266.014 154.736 251.175 147.544 233.814C140.353 216.453 138.472 197.349 142.138 178.918C145.804 160.488 154.853 143.558 168.14 130.271C181.428 116.983 198.357 107.934 216.788 104.268C235.218 100.602 254.322 102.484 271.683 109.675C289.044 116.866 303.883 129.044 314.323 144.669C324.763 160.293 330.336 178.663 330.336 197.454C330.307 222.644 320.288 246.794 302.476 264.606C284.664 282.418 260.514 292.438 235.324 292.466ZM235.324 103.939C216.828 103.939 198.748 109.423 183.369 119.699C167.991 129.975 156.005 144.58 148.927 161.667C141.849 178.755 139.997 197.558 143.605 215.698C147.213 233.839 156.12 250.501 169.198 263.58C182.277 276.658 198.94 285.565 217.08 289.173C235.22 292.781 254.023 290.929 271.111 283.851C288.198 276.773 302.804 264.787 313.079 249.409C323.355 234.03 328.839 215.95 328.839 197.454C328.811 172.661 318.95 148.891 301.418 131.36C283.887 113.828 260.117 103.967 235.324 103.939Z" fill="#F2F2F2"/>
<path d="M242.574 218.244H303.496C303.695 218.244 303.885 218.165 304.025 218.025C304.166 217.885 304.244 217.695 304.244 217.496C304.244 217.298 304.166 217.107 304.025 216.967C303.885 216.827 303.695 216.748 303.496 216.748H242.574C242.376 216.748 242.185 216.827 242.045 216.967C241.905 217.107 241.826 217.298 241.826 217.496C241.826 217.695 241.905 217.885 242.045 218.025C242.185 218.165 242.376 218.244 242.574 218.244Z" fill="#3F3D56"/>
<path d="M318.675 216C313.59 216.006 308.715 218.028 305.119 221.624C301.523 225.22 299.501 230.095 299.495 235.18V316.52C299.501 321.605 301.523 326.48 305.119 330.076C308.715 333.672 313.59 335.694 318.675 335.7H444.902C449.987 335.694 454.863 333.672 458.458 330.076C462.054 326.48 464.077 321.605 464.082 316.52V235.18C464.077 230.095 462.054 225.22 458.458 221.624C454.863 218.028 449.987 216.006 444.902 216H318.675Z" fill="white"/>
<path d="M444.902 336.448H318.675C313.392 336.442 308.326 334.341 304.59 330.605C300.854 326.869 298.753 321.803 298.747 316.52V235.18C298.753 229.897 300.854 224.831 304.59 221.095C308.326 217.359 313.392 215.258 318.675 215.252H444.902C450.186 215.258 455.251 217.359 458.987 221.095C462.723 224.831 464.825 229.897 464.831 235.18V316.52C464.825 321.803 462.723 326.869 458.987 330.605C455.251 334.341 450.186 336.442 444.902 336.448ZM318.675 216.748C313.788 216.754 309.103 218.697 305.648 222.153C302.192 225.608 300.249 230.293 300.243 235.18V316.52C300.249 321.407 302.192 326.092 305.648 329.547C309.103 333.003 313.788 334.946 318.675 334.952H444.902C449.789 334.946 454.474 333.003 457.93 329.547C461.385 326.092 463.329 321.407 463.334 316.52V235.18C463.329 230.293 461.385 225.608 457.93 222.153C454.474 218.697 449.789 216.754 444.902 216.748H318.675Z" fill="#3F3D56"/>
<path d="M240.41 211.241C238.523 211.569 236.838 212.62 235.715 214.171C234.591 215.722 234.116 217.651 234.393 219.546C234.455 219.93 234.549 220.309 234.673 220.678L197.038 253.846L210.978 263.611L244.24 224.865C245.729 224.23 246.966 223.119 247.758 221.707C248.55 220.294 248.852 218.659 248.618 217.057C248.475 216.147 248.155 215.273 247.675 214.487C247.195 213.7 246.565 213.016 245.82 212.473C245.076 211.929 244.231 211.538 243.336 211.322C242.44 211.105 241.511 211.066 240.6 211.209C240.537 211.219 240.473 211.23 240.41 211.241Z" fill="#A0616A"/>
<path d="M217.977 527.798H123.431C119.384 527.798 116.091 523.642 116.091 518.533V418.069C116.091 412.96 119.384 408.804 123.431 408.804H217.977C222.024 408.804 225.317 412.96 225.317 418.069V518.533C225.317 523.642 222.024 527.798 217.977 527.798Z" fill="#F2F2F2"/>
<path d="M67 527.593C66.9719 527.859 67.0494 528.126 67.2159 528.336C67.3823 528.546 67.6244 528.683 67.8903 528.716H466.11C466.363 528.657 466.589 528.513 466.751 528.309C466.912 528.105 467 527.853 467 527.593C467 527.332 466.912 527.08 466.751 526.876C466.589 526.672 466.363 526.528 466.11 526.469H67.8903C67.6244 526.502 67.3823 526.639 67.2159 526.849C67.0494 527.059 66.972 527.326 67 527.593Z" fill="#CCCCCC"/>
<path d="M283.631 513.866L293.163 513.865L297.698 477.096L283.629 477.097L283.631 513.866Z" fill="#A0616A"/>
<path d="M283.295 523.81L312.609 523.809V523.438C312.609 520.412 311.407 517.51 309.267 515.371C307.127 513.231 304.225 512.029 301.199 512.029L295.844 507.966L285.853 512.029L283.294 512.029L283.295 523.81Z" fill="#2F2E41"/>
<path d="M224.422 509.482L233.598 512.065L247.929 477.901L234.385 474.088L224.422 509.482Z" fill="#A0616A"/>
<path d="M221.404 518.963L249.621 526.907L249.721 526.55C250.541 523.638 250.171 520.518 248.691 517.879C247.211 515.239 244.744 513.296 241.831 512.475L237.777 507.114L227.059 508.317L224.596 507.623L221.404 518.963Z" fill="#2F2E41"/>
<path d="M199.994 352.907C199.994 352.907 196.942 352.603 204.768 355.311C213.236 358.251 226.089 357.87 238.396 362.284C242.196 363.645 246.049 365.037 249.872 366.428C250.643 366.705 251.413 366.989 252.184 367.266C257.159 369.084 262.051 370.902 266.675 372.638C267.326 372.885 267.969 373.132 268.605 373.371C268.62 373.378 268.635 373.378 268.642 373.386C283.717 379.117 295.575 384.024 297.535 385.984C299.63 388.079 300.498 402.234 300.737 419.725C301.171 452.141 299.458 496.026 299.458 496.026L281.824 495.959C281.824 495.959 281.712 495.57 281.495 494.844C281.106 493.505 280.38 491.014 279.415 487.759C275.405 474.166 267.333 447.226 262.874 434.889C261.618 431.403 260.645 429.084 260.129 428.56C257.136 425.493 260.129 424.139 263.121 422.194C266.114 420.248 263.121 419.65 260.922 417.106C258.722 414.563 261.745 408.832 261.745 408.832C261.745 408.832 259.755 408.78 256.583 408.697C251.899 408.578 244.613 408.398 237.318 408.219C237.311 408.226 237.311 408.226 237.311 408.219C234.565 408.151 231.82 408.084 229.216 408.024C227.196 407.972 225.259 407.927 223.463 407.882C218.084 407.762 214.014 407.68 212.997 407.68C209.675 407.68 212.256 407.68 210.251 405.054C209.944 404.662 209.611 404.289 209.256 403.939C208.753 403.379 208.203 402.863 207.61 402.398C207.191 402.204 207.76 403.408 207.446 404.972C207.274 405.819 206.873 406.603 206.286 407.239C203.316 410.538 194.204 406.977 194.204 406.977C179.212 414.473 166.912 413.934 157.441 410.426C150.638 407.804 144.535 403.64 139.613 398.261C137.665 396.213 135.917 393.983 134.391 391.603L133.157 391.371C133.157 391.371 131.496 335.722 133.411 331.959C136.396 326.094 180.543 330.463 180.543 330.463L199.994 352.907Z" fill="#2F2E41"/>
<path d="M282.225 127.721H343.147C343.345 127.721 343.536 127.643 343.676 127.502C343.816 127.362 343.895 127.172 343.895 126.973C343.895 126.775 343.816 126.585 343.676 126.444C343.536 126.304 343.345 126.225 343.147 126.225H282.225C282.026 126.225 281.836 126.304 281.696 126.444C281.555 126.585 281.477 126.775 281.477 126.973C281.477 127.172 281.555 127.362 281.696 127.502C281.836 127.643 282.026 127.721 282.225 127.721Z" fill="#3F3D56"/>
<path d="M364.707 187.218C352.354 170.788 345.215 152.415 344.981 131.469C344.583 130.34 344.649 129.1 345.165 128.02C345.68 126.939 346.603 126.108 347.731 125.707L389.834 110.81C390.963 110.412 392.203 110.478 393.283 110.994C394.364 111.51 395.195 112.433 395.596 113.56L415.321 169.309C415.719 170.438 415.653 171.678 415.137 172.759C414.622 173.839 413.699 174.67 412.571 175.071L370.468 189.968C369.34 190.366 368.099 190.3 367.019 189.784C365.939 189.269 365.107 188.346 364.707 187.218Z" fill="#E6E6E6"/>
<path d="M361.978 169.237C354.549 161.725 351.369 148.328 349.297 133.396C348.924 132.339 348.986 131.177 349.469 130.166C349.952 129.154 350.816 128.375 351.872 128L388.056 115.197C389.113 114.825 390.275 114.886 391.287 115.369C392.298 115.852 393.077 116.717 393.452 117.773L411.005 167.382C411.378 168.439 411.316 169.601 410.833 170.612C410.35 171.624 409.486 172.403 408.43 172.778L386.015 180.709C381.306 182.369 376.13 182.093 371.624 179.943C367.118 177.792 363.649 173.942 361.978 169.237Z" fill="white"/>
<path d="M393.937 144.498L365.751 154.559C365.529 154.638 365.293 154.673 365.058 154.661C364.822 154.649 364.591 154.591 364.378 154.49C364.165 154.389 363.974 154.247 363.816 154.072C363.657 153.897 363.535 153.693 363.456 153.471C363.377 153.249 363.342 153.013 363.354 152.778C363.365 152.542 363.423 152.312 363.524 152.098C363.625 151.885 363.767 151.694 363.942 151.536C364.117 151.378 364.321 151.256 364.543 151.176L392.729 141.115C392.951 141.036 393.187 141.001 393.423 141.013C393.658 141.025 393.889 141.083 394.102 141.184C394.315 141.285 394.506 141.427 394.664 141.602C394.823 141.776 394.945 141.981 395.024 142.203C395.103 142.425 395.138 142.66 395.126 142.896C395.115 143.131 395.057 143.362 394.956 143.575C394.855 143.788 394.713 143.98 394.538 144.138C394.363 144.296 394.159 144.418 393.937 144.498Z" fill="#3B82F6"/>
<path d="M368.641 143.07L362.44 145.284C361.992 145.443 361.498 145.418 361.068 145.214C360.638 145.01 360.307 144.644 360.147 144.196C359.987 143.747 360.012 143.254 360.215 142.824C360.419 142.394 360.785 142.062 361.233 141.901L367.434 139.688C367.882 139.528 368.376 139.553 368.806 139.756C369.237 139.96 369.568 140.327 369.729 140.776C369.889 141.224 369.864 141.718 369.66 142.148C369.456 142.579 369.09 142.91 368.641 143.07Z" fill="#3B82F6"/>
<path d="M399.244 159.367L371.058 169.428C370.836 169.507 370.601 169.542 370.365 169.53C370.13 169.518 369.899 169.46 369.686 169.359C369.473 169.258 369.282 169.116 369.123 168.942C368.965 168.767 368.843 168.562 368.764 168.34C368.684 168.118 368.649 167.883 368.661 167.647C368.673 167.412 368.731 167.181 368.832 166.968C368.933 166.755 369.075 166.563 369.25 166.405C369.425 166.247 369.629 166.125 369.851 166.046L398.037 155.985C398.259 155.905 398.495 155.87 398.731 155.882C398.966 155.893 399.197 155.951 399.411 156.052C399.624 156.153 399.815 156.295 399.974 156.47C400.132 156.645 400.254 156.849 400.334 157.071C400.413 157.294 400.448 157.529 400.436 157.765C400.424 158.001 400.366 158.232 400.265 158.445C400.164 158.658 400.021 158.849 399.846 159.007C399.671 159.166 399.467 159.288 399.244 159.367Z" fill="#3B82F6"/>
<path d="M396.591 151.932L368.405 161.993C367.956 162.153 367.462 162.128 367.032 161.925C366.602 161.721 366.27 161.354 366.11 160.906C365.95 160.457 365.974 159.963 366.178 159.533C366.382 159.103 366.749 158.771 367.197 158.611L395.383 148.55C395.832 148.39 396.325 148.415 396.755 148.619C397.185 148.823 397.516 149.19 397.676 149.638C397.836 150.086 397.812 150.579 397.608 151.01C397.405 151.44 397.039 151.772 396.591 151.932Z" fill="#3B82F6"/>
<path d="M347.375 137.447C351.507 137.447 354.856 134.097 354.856 129.966C354.856 125.834 351.507 122.484 347.375 122.484C343.243 122.484 339.894 125.834 339.894 129.966C339.894 134.097 343.243 137.447 347.375 137.447Z" fill="#3B82F6"/>
<path d="M212.028 113.507H151.106C150.907 113.507 150.717 113.428 150.577 113.288C150.436 113.148 150.357 112.957 150.357 112.759C150.357 112.56 150.436 112.37 150.577 112.23C150.717 112.09 150.907 112.011 151.106 112.011H212.028C212.226 112.011 212.416 112.09 212.557 112.23C212.697 112.37 212.776 112.56 212.776 112.759C212.776 112.957 212.697 113.148 212.557 113.288C212.416 113.428 212.226 113.507 212.028 113.507Z" fill="#3F3D56"/>
<path d="M72.3233 140.044C77.6143 120.182 87.6531 103.219 103.981 90.0967C104.623 89.0865 105.64 88.3722 106.807 88.1104C107.975 87.8486 109.199 88.0608 110.211 88.7005L147.933 112.609C148.943 113.251 149.657 114.268 149.919 115.435C150.181 116.603 149.969 117.827 149.329 118.839L117.671 168.787C117.029 169.797 116.013 170.511 114.845 170.773C113.677 171.035 112.453 170.823 111.441 170.183L73.7195 146.274C72.7093 145.632 71.995 144.616 71.7332 143.448C71.4714 142.28 71.6837 141.056 72.3233 140.044Z" fill="#E6E6E6"/>
<path d="M84.7788 126.792C86.0971 116.31 94.6686 105.534 105.131 94.681C105.733 93.7349 106.684 93.0659 107.778 92.8207C108.872 92.5756 110.018 92.7743 110.966 93.3734L143.384 113.921C144.331 114.522 145 115.474 145.245 116.568C145.49 117.662 145.291 118.808 144.692 119.756L116.521 164.202C115.92 165.148 114.968 165.817 113.874 166.062C112.78 166.308 111.634 166.109 110.686 165.51L90.6037 152.781C86.3894 150.103 83.4093 145.863 82.3173 140.991C81.2253 136.119 82.1105 131.012 84.7788 126.792Z" fill="white"/>
<path d="M123.975 136.644L98.6523 120.692C98.2498 120.438 97.9648 120.034 97.8596 119.57C97.7545 119.106 97.8379 118.619 98.0916 118.217C98.3453 117.814 98.7484 117.528 99.2125 117.423C99.6765 117.317 100.164 117.4 100.566 117.653L125.889 133.605C126.089 133.73 126.262 133.894 126.398 134.087C126.535 134.279 126.632 134.497 126.684 134.727C126.737 134.957 126.743 135.195 126.703 135.428C126.664 135.66 126.578 135.883 126.453 136.082C126.327 136.282 126.163 136.455 125.97 136.591C125.778 136.727 125.56 136.824 125.33 136.877C125.1 136.929 124.862 136.935 124.629 136.895C124.397 136.855 124.174 136.77 123.975 136.644Z" fill="#3B82F6"/>
<path d="M109.472 115.869L103.901 112.36C103.701 112.234 103.528 112.071 103.392 111.878C103.255 111.686 103.158 111.468 103.106 111.238C103.053 111.008 103.047 110.77 103.087 110.537C103.126 110.305 103.211 110.082 103.337 109.883C103.463 109.683 103.627 109.51 103.82 109.374C104.012 109.237 104.23 109.14 104.46 109.088C104.69 109.036 104.928 109.03 105.161 109.07C105.393 109.11 105.616 109.195 105.815 109.321L111.386 112.831C111.586 112.956 111.759 113.12 111.896 113.312C112.032 113.505 112.129 113.722 112.182 113.952C112.234 114.183 112.24 114.421 112.201 114.653C112.161 114.886 112.076 115.108 111.95 115.308C111.824 115.508 111.66 115.681 111.468 115.817C111.275 115.953 111.057 116.05 110.827 116.102C110.597 116.154 110.359 116.161 110.126 116.121C109.894 116.081 109.672 115.995 109.472 115.869Z" fill="#3B82F6"/>
<path d="M115.559 150.003L90.237 134.051C90.0372 133.925 89.8641 133.762 89.7276 133.569C89.5912 133.377 89.494 133.159 89.4416 132.929C89.3892 132.699 89.3827 132.461 89.4225 132.228C89.4622 131.996 89.5474 131.773 89.6732 131.573C89.7989 131.374 89.9628 131.201 90.1554 131.065C90.3481 130.928 90.5657 130.831 90.7958 130.779C91.026 130.727 91.2641 130.721 91.4967 130.761C91.7293 130.801 91.9516 130.886 92.1512 131.012L117.474 146.964C117.876 147.218 118.161 147.621 118.266 148.086C118.371 148.55 118.288 149.037 118.034 149.439C117.781 149.842 117.377 150.127 116.913 150.233C116.449 150.339 115.962 150.256 115.559 150.003Z" fill="#3B82F6"/>
<path d="M119.767 143.323L94.4446 127.372C94.2448 127.246 94.0718 127.082 93.9353 126.89C93.7988 126.697 93.7016 126.48 93.6493 126.25C93.5969 126.02 93.5904 125.782 93.6301 125.549C93.6699 125.316 93.755 125.094 93.8808 124.894C94.0066 124.695 94.1705 124.522 94.3631 124.385C94.5558 124.249 94.7734 124.152 95.0035 124.1C95.2336 124.048 95.4718 124.042 95.7043 124.082C95.9369 124.122 96.1593 124.207 96.3588 124.333L121.681 140.285C122.084 140.538 122.37 140.942 122.475 141.406C122.581 141.871 122.497 142.358 122.243 142.761C122.118 142.961 121.954 143.133 121.762 143.27C121.569 143.406 121.352 143.503 121.122 143.555C120.657 143.661 120.17 143.577 119.767 143.323Z" fill="#3B82F6"/>
<path d="M146.877 123.233C151.009 123.233 154.359 119.883 154.359 115.751C154.359 111.619 151.009 108.27 146.877 108.27C142.746 108.27 139.396 111.619 139.396 115.751C139.396 119.883 142.746 123.233 146.877 123.233Z" fill="#3B82F6"/>
<path d="M307.724 227.97C311.856 227.97 315.206 224.621 315.206 220.489C315.206 216.357 311.856 213.008 307.724 213.008C303.593 213.008 300.243 216.357 300.243 220.489C300.243 224.621 303.593 227.97 307.724 227.97Z" fill="#3B82F6"/>
<path d="M272.703 407.432C269.584 424.43 256.364 464.267 248.374 487.586C244.731 498.24 244.432 494.23 244.432 494.23L240.28 492.921L233.277 490.706L230.719 489.898L227.621 488.918C227.621 488.918 226.103 461.821 225.616 441.494C225.452 434.941 225.168 430.258 224.696 429.33C222.751 425.514 226.006 425.111 229.439 424.145C232.881 423.18 230.195 421.729 228.856 418.632C227.951 416.567 229.731 413.821 230.996 412.25C231.344 411.809 231.716 411.387 232.11 410.986C232.11 410.986 223.357 408.008 213.459 404.649C213.452 404.657 213.452 404.649 213.452 404.649C212.457 404.313 211.454 403.976 210.452 403.632C213.938 402.375 216.257 401.402 216.781 400.886C219.848 397.894 221.203 400.886 223.148 403.879C225.093 406.871 225.691 403.879 228.235 401.679C230.779 399.48 236.509 402.502 236.509 402.502C236.509 402.502 236.562 400.512 236.644 397.34C236.764 392.657 236.943 385.37 237.123 378.076C237.115 378.068 237.115 378.068 237.123 378.068C237.19 375.323 237.257 372.577 237.317 369.974C242.591 374.014 247.709 377.979 252.347 381.644C252.355 381.652 252.369 381.659 252.369 381.674C263.524 390.487 271.895 397.564 273.07 399.809C273.601 400.826 273.422 403.527 272.703 407.432Z" fill="#2F2E41"/>
<path d="M159.033 236.391C171.575 236.391 181.743 226.223 181.743 213.681C181.743 201.139 171.575 190.972 159.033 190.972C146.491 190.972 136.324 201.139 136.324 213.681C136.324 226.223 146.491 236.391 159.033 236.391Z" fill="#A0616A"/>
<path d="M154.779 232.453L152.929 238.368C148.828 236.343 144.671 234.281 141.255 231.238C137.84 228.195 135.198 223.996 135.037 219.425C134.953 217.064 135.525 214.682 135.133 212.352C134.689 209.72 133.065 207.438 132.321 204.874C131.625 202.189 131.887 199.345 133.061 196.832C134.236 194.319 136.25 192.294 138.756 191.105C142.52 189.45 146.825 189.915 150.917 189.515C155.01 189.115 159.575 187.264 160.727 183.317C161.157 181.841 161.108 180.101 162.426 179.134C163.089 178.691 163.892 178.51 164.681 178.624C165.469 178.738 166.188 179.139 166.698 179.752C168.625 181.94 168.151 184.821 167.646 187.441C170.3 187.094 172.852 186.197 175.139 184.807C177.426 183.416 179.397 181.563 180.926 179.367C181.644 180.039 182.222 180.847 182.626 181.744C183.03 182.641 183.252 183.609 183.279 184.592C183.306 185.575 183.139 186.554 182.785 187.472C182.432 188.39 181.9 189.229 181.221 189.94C182.512 189.941 183.765 189.506 184.778 188.707C185.791 187.908 186.505 186.791 186.806 185.536C188.373 187.7 189.981 189.958 190.485 192.582C190.989 195.207 190.054 198.311 187.647 199.472C186.419 199.958 185.1 200.174 183.781 200.105L173.691 200.297C170.69 200.354 167.829 201.576 165.714 203.704C163.598 205.833 162.393 208.701 162.354 211.702C159.419 211.42 156.395 211.144 153.619 212.38C152.326 212.925 151.237 213.861 150.504 215.058C148.669 218.209 150.489 221.484 152.103 224.35C153.481 226.8 154.789 229.751 153.644 232.319" fill="#2F2E41"/>
<path d="M258.447 463.033L216.344 448.136C215.216 447.736 214.293 446.904 213.778 445.824C213.262 444.744 213.196 443.503 213.594 442.374L233.319 386.626C233.72 385.498 234.551 384.575 235.632 384.059C236.712 383.544 237.952 383.478 239.081 383.876L281.184 398.773C282.312 399.173 283.235 400.005 283.75 401.085C284.266 402.165 284.332 403.406 283.934 404.535C283.7 425.481 276.561 443.853 264.208 460.283C263.808 461.411 262.976 462.334 261.896 462.85C260.816 463.365 259.575 463.431 258.447 463.033Z" fill="#E6E6E6"/>
<path d="M242.9 453.775L220.485 445.844C219.429 445.469 218.565 444.69 218.082 443.678C217.599 442.667 217.537 441.505 217.91 440.447L235.463 390.839C235.838 389.782 236.616 388.918 237.628 388.435C238.64 387.952 239.802 387.891 240.859 388.263L277.042 401.066C278.099 401.441 278.963 402.22 279.446 403.232C279.929 404.243 279.991 405.405 279.618 406.462C277.546 421.394 274.366 434.791 266.937 442.302C265.266 447.008 261.797 450.858 257.291 453.009C252.785 455.159 247.609 455.435 242.9 453.775Z" fill="white"/>
<path d="M233.891 415.268C234.051 414.82 234.383 414.454 234.813 414.25C235.243 414.046 235.737 414.021 236.186 414.181L264.372 424.242C264.594 424.321 264.798 424.443 264.974 424.601C265.149 424.759 265.291 424.95 265.392 425.164C265.493 425.377 265.551 425.608 265.563 425.843C265.575 426.079 265.54 426.315 265.461 426.537C265.382 426.759 265.259 426.964 265.101 427.139C264.942 427.314 264.751 427.456 264.538 427.556C264.325 427.657 264.093 427.715 263.858 427.727C263.622 427.738 263.386 427.703 263.164 427.624L234.978 417.563C234.53 417.402 234.164 417.071 233.96 416.64C233.756 416.21 233.731 415.717 233.891 415.268Z" fill="#3B82F6"/>
<path d="M259.186 413.841C259.347 413.393 259.679 413.027 260.109 412.823C260.539 412.619 261.033 412.594 261.481 412.754L267.682 414.967C267.904 415.047 268.108 415.169 268.283 415.327C268.458 415.485 268.6 415.676 268.701 415.889C268.802 416.103 268.86 416.333 268.872 416.569C268.884 416.804 268.849 417.04 268.77 417.262C268.69 417.484 268.568 417.688 268.41 417.863C268.252 418.038 268.061 418.18 267.847 418.281C267.634 418.382 267.403 418.44 267.168 418.452C266.932 418.464 266.697 418.429 266.475 418.35L260.274 416.136C259.826 415.976 259.459 415.644 259.256 415.214C259.052 414.783 259.027 414.29 259.186 413.841Z" fill="#3B82F6"/>
<path d="M228.583 430.138C228.744 429.69 229.075 429.323 229.506 429.119C229.936 428.916 230.429 428.891 230.878 429.05L259.064 439.111C259.286 439.19 259.491 439.312 259.666 439.471C259.841 439.629 259.983 439.82 260.084 440.033C260.185 440.246 260.244 440.477 260.255 440.713C260.267 440.949 260.232 441.184 260.153 441.407C260.074 441.629 259.951 441.833 259.793 442.008C259.635 442.183 259.443 442.325 259.23 442.426C259.017 442.527 258.786 442.585 258.55 442.597C258.314 442.608 258.079 442.573 257.857 442.494L229.671 432.433C229.222 432.272 228.856 431.94 228.652 431.51C228.448 431.08 228.423 430.586 228.583 430.138Z" fill="#3B82F6"/>
<path d="M231.237 422.703C231.397 422.255 231.729 421.889 232.159 421.685C232.59 421.481 233.083 421.456 233.532 421.616L261.718 431.677C261.94 431.756 262.145 431.878 262.32 432.036C262.495 432.194 262.637 432.385 262.738 432.599C262.839 432.812 262.897 433.043 262.909 433.279C262.921 433.514 262.886 433.75 262.807 433.972C262.728 434.194 262.605 434.399 262.447 434.574C262.289 434.749 262.097 434.891 261.884 434.992C261.671 435.092 261.44 435.15 261.204 435.162C260.968 435.174 260.733 435.139 260.51 435.059L232.324 424.998C231.876 424.837 231.51 424.506 231.306 424.075C231.102 423.645 231.077 423.152 231.237 422.703Z" fill="#3B82F6"/>
<path d="M245.684 384.687C245.145 382.849 243.91 381.294 242.241 380.353C240.573 379.412 238.604 379.159 236.752 379.648C236.377 379.753 236.011 379.889 235.659 380.055L198.445 346.414L190.321 361.369L232.581 390.033C233.38 391.441 234.624 392.545 236.117 393.172C237.61 393.799 239.269 393.914 240.834 393.5C241.722 393.255 242.554 392.838 243.281 392.272C244.009 391.706 244.617 391.003 245.073 390.201C245.528 389.4 245.821 388.517 245.935 387.603C246.049 386.688 245.982 385.761 245.738 384.872C245.721 384.81 245.703 384.748 245.684 384.687Z" fill="#A0616A"/>
<path d="M226.134 248.776C226.134 248.776 217.643 258.554 207.304 269.626C206.585 270.389 205.867 271.16 205.127 271.938C198.842 278.596 192.072 285.509 186.199 290.873C179.937 296.611 174.693 300.606 172.149 300.703C171.937 300.717 171.725 300.694 171.521 300.636C163.912 298.346 170.182 301.07 166.927 305.715C163.658 310.369 164.062 304.264 156.738 300.636C149.429 297.007 153.319 300.613 150.401 306.344C149.496 308.139 141.551 307.773 131.077 306.426C129.895 296.439 128.174 287.82 128.174 287.82C128.153 281.83 128.765 275.854 130 269.992C148.247 269.663 163.336 269.476 164.107 269.716C166.097 270.322 170.376 268.788 175.104 266.117C175.778 265.736 177.049 264.853 178.733 263.611C180.221 262.519 182.017 261.157 184.014 259.631C186.259 257.895 190.082 256.945 191.324 253.923C194.93 245.2 193.695 251.708 194.66 251.304C195.76 250.84 197.705 250.661 198.842 249.995C199.154 249.859 199.409 249.621 199.568 249.321C199.727 249.021 199.78 248.676 199.718 248.342C199.662 248.058 199.566 247.783 199.433 247.526C198.401 245.454 199.972 245.252 201.453 245.035C202.067 245.005 202.665 244.828 203.196 244.519C209.144 239.776 213.648 236.132 213.648 236.132L215.264 237.778L215.271 237.786L224.832 247.466L226.134 248.776Z" fill="#8CC678"/>
<path d="M200.742 343.93L197.989 345.718L190.942 350.296L181.381 356.498L130.419 389.565C130.419 389.565 124.12 376.727 129.888 365.565C130.63 364.153 131.234 362.673 131.691 361.144C134.025 353.139 129.536 349.668 129.536 349.668C129.536 349.668 122.055 342.389 129.229 335.678C130.703 334.301 131.526 331.481 131.9 327.86C132.528 321.905 131.952 313.795 131.077 306.426C129.895 296.439 128.174 287.82 128.174 287.82C128.153 281.83 128.765 275.854 130 269.992C131.369 263.678 133.568 257.678 136.823 252.696C138.016 250.847 139.392 249.123 140.93 247.549C143.082 245.343 145.6 243.528 148.374 242.185C152.533 240.18 159.663 241.384 165.947 242.259C167.212 242.432 168.438 242.596 169.598 242.716C170.748 242.849 171.904 242.922 173.062 242.933L175.665 252.434L176.653 256.032L177.147 257.835L178.269 261.935L178.733 263.611L186.199 290.873L192.296 313.107L195.663 325.391L200.698 343.758L200.742 343.93Z" fill="#8CC678"/>
<path d="M217.919 360.912L216.468 362.707L207.924 373.308L206.772 374.745C206.772 374.745 194.57 366.366 181.381 356.498C165.551 344.64 148.299 330.628 149.069 326.356C150.483 318.538 148.486 325.069 143.496 322.361C138.513 319.645 144.618 319.353 147.394 311.67C150.177 303.994 147.035 308.266 141.012 306.022C136.995 304.526 139.097 270.202 140.93 247.548C143.082 245.343 145.6 243.528 148.374 242.184C153.364 239.775 162.648 241.997 169.598 242.716C173.533 271.72 179.211 314.146 178.957 315.486C178.568 317.528 180.588 321.605 183.775 326.004C185.271 328.084 192.984 335.992 200.698 343.757C209.301 352.421 217.919 360.912 217.919 360.912Z" fill="#8CC678"/>
<path d="M401.345 254.134H322.136C321.911 254.134 321.689 254.09 321.481 254.005C321.274 253.919 321.085 253.793 320.926 253.635C320.767 253.476 320.641 253.287 320.555 253.08C320.468 252.872 320.424 252.65 320.424 252.425C320.424 252.201 320.468 251.978 320.555 251.771C320.641 251.563 320.767 251.375 320.926 251.216C321.085 251.058 321.274 250.932 321.481 250.846C321.689 250.761 321.911 250.717 322.136 250.717H401.345C401.797 250.718 402.231 250.899 402.55 251.219C402.87 251.539 403.049 251.973 403.049 252.425C403.049 252.878 402.87 253.312 402.55 253.632C402.231 253.952 401.797 254.133 401.345 254.134Z" fill="#3B82F6"/>
<path d="M441.442 269.75H322.136C321.911 269.751 321.689 269.707 321.481 269.621C321.274 269.536 321.085 269.41 320.926 269.251C320.767 269.093 320.641 268.904 320.555 268.697C320.468 268.489 320.424 268.267 320.424 268.042C320.424 267.818 320.468 267.595 320.555 267.388C320.641 267.18 320.767 266.992 320.926 266.833C321.085 266.674 321.274 266.549 321.481 266.463C321.689 266.377 321.911 266.334 322.136 266.334H441.442C441.894 266.335 442.328 266.515 442.647 266.836C442.967 267.156 443.146 267.59 443.146 268.042C443.146 268.495 442.967 268.928 442.647 269.249C442.328 269.569 441.894 269.749 441.442 269.75Z" fill="#F2F2F2"/>
<path d="M441.444 281.948H322.133C321.68 281.948 321.245 282.128 320.924 282.448C320.604 282.769 320.424 283.204 320.424 283.657C320.424 284.111 320.604 284.545 320.924 284.866C321.245 285.187 321.68 285.367 322.133 285.367H441.444C441.898 285.367 442.332 285.187 442.653 284.866C442.974 284.545 443.154 284.111 443.154 283.657C443.154 283.204 442.974 282.769 442.653 282.448C442.332 282.128 441.898 281.948 441.444 281.948Z" fill="#F2F2F2"/>
<path d="M441.442 300.983H322.136C321.911 300.984 321.689 300.94 321.481 300.854C321.274 300.769 321.085 300.643 320.926 300.484C320.767 300.325 320.641 300.137 320.555 299.93C320.468 299.722 320.424 299.5 320.424 299.275C320.424 299.05 320.468 298.828 320.555 298.621C320.641 298.413 320.767 298.225 320.926 298.066C321.085 297.907 321.274 297.782 321.481 297.696C321.689 297.61 321.911 297.566 322.136 297.567H441.442C441.894 297.568 442.328 297.748 442.647 298.068C442.967 298.389 443.146 298.823 443.146 299.275C443.146 299.727 442.967 300.161 442.647 300.482C442.328 300.802 441.894 300.982 441.442 300.983Z" fill="#F2F2F2"/>
</g>
<path d="M367.074 79.8157C305.313 -4.60845 188.564 103.403 99.9316 187.727C11.2992 272.052 78.1455 307.994 24.2085 391.336C-29.7284 474.678 135.653 533.053 207.542 488.817C279.431 444.581 587.643 378.845 604.793 226.399C621.944 73.9539 428.835 164.24 367.074 79.8157Z" stroke="#D0E2FF" stroke-width="3"/>
<defs>
<clipPath id="clip0_88_67">
<rect width="400" height="440.716" fill="white" transform="translate(67 88)"/>
</clipPath>
</defs>
</svg>
